<svg xmlns="http://www.w3.org/2000/svg" viewBox="0 0 48 48"><rect width="48" height="48" rx="10" fill="#24292E"/><path d="M24 10a14 14 0 0 0-4.42 27.28c.7.13.96-.3.96-.67v-2.37c-3.9.85-4.72-1.88-4.72-1.88a3.71 3.71 0 0 0-1.56-2.05c-1.27-.87.1-.85.1-.85a2.94 2.94 0 0 1 2.14 1.44 2.98 2.98 0 0 0 4.07 1.16 2.99 2.99 0 0 1 .89-1.87c-3.12-.35-6.4-1.56-6.4-6.94a5.43 5.43 0 0 1 1.45-3.77 5.06 5.06 0 0 1 .14-3.72s1.18-.38 3.86 1.44a13.3 13.3 0 0 1 7.02 0c2.68-1.82 3.86-1.44 3.86-1.44a5.06 5.06 0 0 1 .14 3.72 5.43 5.43 0 0 1 1.45 3.77c0 5.4-3.28 6.58-6.41 6.93a3.34 3.34 0 0 1 .95 2.59v3.84c0 .37.25.81.96.67A14 14 0 0 0 24 10z" fill="#fff"/></svg>
