<svg xmlns="http://www.w3.org/2000/svg" viewBox="0 0 48 48"><rect width="48" height="48" rx="10" fill="#fff"/><path d="M15.2 33.6L8.4 21.6h11.2l6.8 12z" fill="#0066DA"/><path d="M24 14.4l-6.8 12H8.4l6.8-12z" fill="#00AC47"/><path d="M24 14.4l6.8 12H19.6l6.8-12z" fill="#00AC47"/><path d="M30.8 26.4l6.8-12H24l6.8 12z" fill="#EA4335"/><path d="M37.6 14.4H26.4l6.8 12z" fill="#EA4335"/><path d="M30.8 26.4L24 14.4l-6.8 12z" fill="#FFBA00"/><path d="M37.6 14.4H26.4L19.6 26.4h11.2z" fill="#EA4335" opacity=".1"/><path d="M15.2 33.6l6.8-12h-11.2" fill="#0066DA" opacity=".1"/><path d="M30.8 26.4h-11.2l-4.4 7.2h11.2z" fill="#0066DA"/><path d="M37.6 21.6l-6.8 12H19.6l-4.4-7.2H26.4l6.8-12h8z" fill="none"/><path d="M17.2 26.4H8.4l6.8 7.2h11.2z" fill="#0066DA"/><path d="M39.6 21.6H28.4l-4.4 7.2L30.8 33.6h8z" fill="#00832D"/></svg>
